<svg width="13" height="13" viewBox="0 0 13 13" fill="none" xmlns="http://www.w3.org/2000/svg">
<path d="M0.46967 11.4697C0.176777 11.7626 0.176777 12.2374 0.46967 12.5303C0.762563 12.8232 1.23744 12.8232 1.53033 12.5303L0.46967 11.4697ZM12.75 1C12.75 0.585786 12.4142 0.25 12 0.25H5.25C4.83579 0.25 4.5 0.585786 4.5 1C4.5 1.41421 4.83579 1.75 5.25 1.75H11.25V7.75C11.25 8.16421 11.5858 8.5 12 8.5C12.4142 8.5 12.75 8.16421 12.75 7.75V1ZM1.53033 12.5303L12.5303 1.53033L11.4697 0.46967L0.46967 11.4697L1.53033 12.5303Z" fill="#3CCD18"/>
</svg>
