<svg width="181" height="181" viewBox="0 0 181 181" fill="none" xmlns="http://www.w3.org/2000/svg">
<circle cx="90" cy="88" r="54" fill="#11271F"/>
<path d="M59 87C57.8954 87 57 87.8954 57 89C57 90.1046 57.8954 91 59 91V87ZM113.414 90.4142C114.195 89.6332 114.195 88.3668 113.414 87.5858L100.686 74.8579C99.9052 74.0768 98.6389 74.0768 97.8579 74.8579C97.0768 75.6389 97.0768 76.9052 97.8579 77.6863L109.172 89L97.8579 100.314C97.0768 101.095 97.0768 102.361 97.8579 103.142C98.6389 103.923 99.9052 103.923 100.686 103.142L113.414 90.4142ZM59 91H112V87H59V91Z" fill="#3CCD18"/>
<path d="M85.4627 168.873C85.3301 169.895 84.9807 170.781 84.4147 171.533C83.8475 172.294 83.1383 172.854 82.2874 173.212C81.4264 173.568 80.5102 173.684 79.5388 173.557C78.3971 173.409 77.4365 173.004 76.6568 172.343C75.877 171.682 75.3576 170.82 75.0983 169.758L76.7357 169.97C76.9442 170.639 77.3018 171.179 77.8083 171.591C78.3049 172.002 78.9337 172.257 79.6948 172.356C80.4259 172.451 81.104 172.366 81.729 172.1C82.3541 171.835 82.8728 171.409 83.2852 170.821C83.6963 170.243 83.9564 169.533 84.0657 168.692C84.1736 167.861 84.1033 167.108 83.8547 166.435C83.6049 165.771 83.2116 165.231 82.675 164.815C82.1384 164.399 81.5045 164.144 80.7735 164.049C80.0124 163.95 79.34 164.031 78.7563 164.291C78.1613 164.56 77.6776 164.991 77.3053 165.584L75.6679 165.372C76.1885 164.421 76.9102 163.725 77.8329 163.285C78.7544 162.855 79.7859 162.714 80.9276 162.862C81.899 162.988 82.756 163.329 83.4986 163.883C84.23 164.447 84.7733 165.164 85.1286 166.035C85.484 166.906 85.5953 167.852 85.4627 168.873Z" fill="#11271F"/>
<path d="M65.6458 159.151C66.566 159.487 67.3277 160.007 67.9308 160.711C68.5304 161.424 68.9129 162.247 69.0783 163.178C69.2308 164.115 69.1304 165.067 68.7773 166.035C68.4241 167.003 67.8891 167.791 67.1723 168.4C66.4425 169.015 65.6202 169.398 64.7055 169.548C63.7873 169.707 62.8681 169.619 61.948 169.283C61.0183 168.944 60.2536 168.417 59.654 167.704C59.0509 167 58.6714 166.184 58.5155 165.257C58.3595 164.329 58.4599 163.377 58.8165 162.399C59.1731 161.422 59.7099 160.629 60.4267 160.02C61.1435 159.411 61.961 159.027 62.8792 158.867C63.794 158.717 64.7162 158.812 65.6458 159.151ZM65.2355 160.276C64.543 160.023 63.8628 159.957 63.1949 160.079C62.5174 160.197 61.9131 160.498 61.382 160.982C60.8413 161.461 60.4273 162.095 60.1399 162.882C59.849 163.679 59.7575 164.431 59.8654 165.137C59.9603 165.848 60.224 166.466 60.6565 166.989C61.089 167.513 61.6563 167.903 62.3583 168.159C63.0603 168.415 63.7452 168.482 64.4132 168.361C65.0811 168.239 65.6854 167.938 66.2261 167.458C66.7538 166.984 67.1631 166.349 67.4539 165.552C67.7413 164.765 67.8375 164.015 67.7426 163.303C67.6382 162.588 67.3697 161.968 66.9373 161.445C66.4953 160.918 65.928 160.528 65.2355 160.276Z" fill="#11271F"/>
<path d="M47.7909 150.041L48.955 150.78L49.1348 160.849L53.6371 153.749L54.8012 154.487L49.1389 163.416L47.9748 162.678L47.7868 152.622L43.2927 159.709L42.1286 158.971L47.7909 150.041Z" fill="#11271F"/>
<path d="M30.6258 149.171L31.3915 148.353L33.4934 150.319L39.9399 143.427L40.9466 144.368L34.5001 151.26L36.6131 153.237L35.8474 154.055L30.6258 149.171Z" fill="#11271F"/>
<path d="M28.2611 133.423L30.9812 137.139L33.3768 136.437L34.2358 137.61L23.5107 140.731L22.5711 139.447L28.7955 130.179L29.6545 131.352L28.2611 133.423ZM27.5892 134.403L24.4143 139.093L29.8441 137.483L27.5892 134.403Z" fill="#11271F"/>
<path d="M20.9229 127.314C19.9834 127.736 19.0454 127.903 18.1088 127.815C17.1631 127.73 16.3148 127.42 15.5641 126.883C14.8092 126.336 14.2309 125.616 13.8293 124.723C13.3574 123.673 13.1987 122.642 13.3534 121.632C13.5081 120.621 13.9699 119.727 14.7387 118.95L15.4156 120.456C14.9554 120.984 14.6826 121.571 14.5971 122.219C14.5075 122.857 14.62 123.526 14.9346 124.226C15.2369 124.898 15.6646 125.431 16.2179 125.825C16.7712 126.218 17.4063 126.436 18.1232 126.48C18.8309 126.527 19.5716 126.377 20.3453 126.029C21.1099 125.685 21.7139 125.231 22.1576 124.666C22.5921 124.106 22.8458 123.488 22.9189 122.813C22.9919 122.138 22.8773 121.464 22.5751 120.792C22.2604 120.092 21.8394 119.561 21.3118 119.201C20.771 118.835 20.1504 118.649 19.45 118.642L18.7731 117.136C19.8557 117.082 20.8262 117.332 21.6847 117.887C22.534 118.446 23.1946 119.251 23.6666 120.301C24.0682 121.195 24.2273 122.103 24.144 123.026C24.0474 123.944 23.7213 124.783 23.1656 125.542C22.61 126.301 21.8624 126.891 20.9229 127.314Z" fill="#11271F"/>
<path d="M8.01956 106.075L9.11101 105.819L9.76684 108.622L18.9557 106.471L19.2698 107.813L10.0809 109.964L10.7402 112.781L9.64878 113.036L8.01956 106.075Z" fill="#11271F"/>
<path d="M6.60253 87.4222L13.2663 87.8909C14.2031 87.9568 14.9141 87.779 15.3993 87.3576C15.8852 86.9261 16.1569 86.3024 16.2143 85.4864C16.271 84.6805 16.0886 84.035 15.6672 83.5498C15.2465 83.0545 14.5677 82.7739 13.6308 82.708L6.96709 82.2393L7.06381 80.8642L13.7124 81.3319C14.5888 81.3935 15.3169 81.6219 15.8965 82.017C16.466 82.4114 16.8756 82.9211 17.1252 83.546C17.3756 84.1609 17.4745 84.8411 17.4221 85.5866C17.3696 86.332 17.1761 86.9967 16.8414 87.5805C16.5075 88.1543 16.0309 88.5966 15.4118 88.9074C14.7833 89.2074 14.0308 89.3266 13.1544 89.2649L6.5058 88.7972L6.60253 87.4222Z" fill="#11271F"/>
<path d="M19.7468 71.4741C19.5658 72.147 19.2862 72.7201 18.9079 73.1935C18.5224 73.6546 18.0794 73.9798 17.5788 74.1694C17.0684 74.3563 16.5339 74.3798 15.9754 74.2401L16.3571 72.8212C16.848 72.9009 17.3052 72.8148 17.7286 72.5626C18.1448 72.2981 18.4421 71.8343 18.6205 71.1711C18.791 70.5373 18.7687 69.9979 18.5537 69.5532C18.3316 69.0961 17.9718 68.8006 17.4745 68.6668C17.0844 68.5619 16.7386 68.5839 16.4371 68.7329C16.1356 68.8819 15.8782 69.1002 15.6648 69.3879C15.4515 69.6757 15.1982 70.0729 14.9051 70.5797C14.5486 71.2053 14.2275 71.6993 13.9418 72.0617C13.6587 72.4143 13.2925 72.6871 12.8432 72.88C12.3868 73.0605 11.8417 73.0655 11.2078 72.895C10.652 72.7455 10.1975 72.4716 9.84451 72.0734C9.49149 71.6752 9.26616 71.1911 9.1685 70.621C9.07348 70.0412 9.11514 69.4197 9.2935 68.7566C9.55056 67.8009 9.99932 67.085 10.6398 66.6089C11.2829 66.1231 12.0099 65.9474 12.8208 66.0818L12.4273 67.5446C12.0241 67.4884 11.6277 67.6014 11.2381 67.8836C10.8388 68.1631 10.5591 68.6003 10.3991 69.1951C10.2496 69.751 10.2739 70.2438 10.472 70.6736C10.6604 71.1007 11.013 71.3838 11.5299 71.5228C11.9004 71.6225 12.2303 71.6014 12.5194 71.4595C12.8112 71.308 13.0611 71.0981 13.2692 70.8298C13.4701 70.5493 13.7234 70.152 14.0289 69.6381C14.3952 69.0151 14.7261 68.5237 15.0215 68.1639C15.3072 67.8016 15.6796 67.5252 16.1386 67.335C16.5878 67.1421 17.1343 67.1322 17.7779 67.3053C18.2753 67.4391 18.708 67.6967 19.076 68.078C19.444 68.4593 19.695 68.9451 19.8291 69.5354C19.9631 70.1257 19.9357 70.772 19.7468 71.4741Z" fill="#11271F"/>
<path d="M23.1175 61.6578C23.0142 61.8992 22.8432 62.0677 22.6046 62.1633C22.366 62.2589 22.126 62.2551 21.8846 62.1518C21.6432 62.0485 21.4747 61.8775 21.3791 61.6389C21.2835 61.4003 21.2873 61.1603 21.3906 60.9189C21.4899 60.6868 21.6569 60.5276 21.8916 60.4412C22.1302 60.3456 22.3702 60.3495 22.6116 60.4527C22.853 60.556 23.0215 60.727 23.1171 60.9656C23.2167 61.195 23.2168 61.4257 23.1175 61.6578Z" fill="#11271F"/>
<path d="M25.8655 45.3164C25.062 44.6719 24.4866 43.9125 24.1393 43.0383C23.784 42.1577 23.6749 41.261 23.8118 40.348C23.955 39.4272 24.3331 38.5847 24.946 37.8207C25.6664 36.9227 26.5118 36.3127 27.4822 35.9907C28.4526 35.6688 29.4588 35.6733 30.5008 36.0043L29.4676 37.2922C28.7881 37.1225 28.1407 37.1469 27.5253 37.3653C26.9162 37.5758 26.3715 37.9803 25.8913 38.579C25.43 39.154 25.15 39.7774 25.0512 40.4491C24.9525 41.1208 25.047 41.7857 25.3348 42.4438C25.6146 43.0955 26.0853 43.6868 26.747 44.2176C27.4008 44.7421 28.0801 45.0735 28.7849 45.2116C29.4818 45.3435 30.1474 45.2884 30.7817 45.0464C31.4161 44.8044 31.9639 44.3959 32.4252 43.8209C32.9055 43.2222 33.1863 42.606 33.2676 41.9721C33.3473 41.324 33.2307 40.6867 32.9177 40.0601L33.9509 38.7722C34.4922 39.7114 34.7108 40.6895 34.6069 41.7066C34.4951 42.7174 34.079 43.6717 33.3586 44.5697C32.7457 45.3338 32.0092 45.8887 31.1492 46.2345C30.2876 46.5661 29.3924 46.6571 28.4637 46.5076C27.535 46.3581 26.6689 45.961 25.8655 45.3164Z" fill="#11271F"/>
<path d="M44.4764 33.4474C43.7109 34.0586 42.8707 34.4388 41.9559 34.5878C41.0347 34.7289 40.1335 34.6279 39.2522 34.2849C38.3724 33.9277 37.6112 33.3466 36.9685 32.5417C36.3257 31.7368 35.9306 30.8698 35.7832 29.9407C35.6374 28.9975 35.7384 28.0962 36.0861 27.237C36.4275 26.3699 36.981 25.6307 37.7464 25.0195C38.5198 24.4019 39.367 24.0226 40.2882 23.8815C41.2031 23.7325 42.0972 23.8327 42.9706 24.182C43.8441 24.5313 44.6053 25.1124 45.2543 25.9252C45.9034 26.738 46.3016 27.6089 46.449 28.538C46.5964 29.4671 46.4994 30.3652 46.158 31.2323C45.8103 32.0915 45.2497 32.8299 44.4764 33.4474ZM43.7296 32.5123C44.3057 32.0523 44.7155 31.5054 44.9589 30.8716C45.2102 30.2315 45.2676 29.5589 45.1311 28.8538C45.0024 28.1424 44.6765 27.4592 44.1535 26.8043C43.6242 26.1414 43.03 25.6724 42.371 25.3974C41.7136 25.1082 41.049 25.0122 40.377 25.1094C39.7051 25.2066 39.0771 25.4883 38.4932 25.9546C37.9092 26.4209 37.4955 26.971 37.2521 27.6047C37.0086 28.2385 36.9512 28.9111 37.0799 29.6225C37.2102 30.3197 37.54 30.9998 38.0693 31.6626C38.5923 32.3176 39.1825 32.7897 39.8399 33.0789C40.5052 33.3618 41.1738 33.4547 41.8458 33.3575C42.5256 33.254 43.1536 32.9723 43.7296 32.5123Z" fill="#11271F"/>
<path d="M61.5437 22.936L60.3078 23.5463L51.6144 18.4629L55.3367 26.001L54.1007 26.6113L49.4194 17.1309L50.6554 16.5206L59.342 21.5905L55.6265 14.0659L56.8624 13.4556L61.5437 22.936Z" fill="#11271F"/>
<path d="M71.2152 8.7278L71.5161 9.80759L68.7437 10.5803L71.2772 19.6709L69.9494 20.041L67.4158 10.9503L64.6288 11.7271L64.3279 10.6473L71.2152 8.7278Z" fill="#11271F"/>
<path d="M85.8951 14.8991L81.3068 15.2897L80.6607 17.7012L79.2118 17.8245L82.1247 7.04109L83.7095 6.90616L88.3884 17.0432L86.9395 17.1666L85.8951 14.8991ZM85.4076 13.8156L83.0535 8.66471L81.6041 14.1394L85.4076 13.8156Z" fill="#11271F"/>
<path d="M94.9301 11.8095C95.0581 10.7875 95.4034 9.89946 95.966 9.14554C96.5298 8.38159 97.2364 7.81872 98.0857 7.45691C98.945 7.09636 99.8607 6.97694 100.833 7.09866C101.975 7.2417 102.937 7.64211 103.72 8.29988C104.503 8.95766 105.026 9.81704 105.29 10.878L103.652 10.6729C103.44 10.0052 103.081 9.46651 102.572 9.05681C102.074 8.64836 101.444 8.39645 100.682 8.30109C99.9506 8.20949 99.2729 8.29765 98.6491 8.56556C98.0253 8.83347 97.5085 9.26237 97.0988 9.85224C96.6903 10.4321 96.4334 11.1429 96.328 11.9846C96.2238 12.8163 96.2976 13.5684 96.5492 14.2411C96.802 14.9038 97.1977 15.4419 97.7362 15.8553C98.2748 16.2688 98.9098 16.5213 99.6412 16.6129C100.403 16.7083 101.075 16.6245 101.657 16.3616C102.251 16.0899 102.733 15.6566 103.102 15.0618L104.741 15.2669C104.224 16.22 103.506 16.9188 102.585 17.3632C101.666 17.7977 100.635 17.9434 99.4926 17.8003C98.5206 17.6786 97.662 17.3421 96.9169 16.7908C96.183 16.2308 95.6364 15.516 95.2771 14.6467C94.9178 13.7773 94.8021 12.8316 94.9301 11.8095Z" fill="#11271F"/>
<path d="M119.781 11.8355L119.431 12.9005L116.697 12.0031L113.754 20.9697L112.444 20.5399L115.387 11.5733L112.638 10.6711L112.987 9.60609L119.781 11.8355Z" fill="#11271F"/>
<path d="M136.449 20.3264L132.583 25.774C132.039 26.5399 131.821 27.2397 131.929 27.8733C132.044 28.5127 132.436 29.0691 133.103 29.5426C133.762 30.0101 134.408 30.1901 135.042 30.0826C135.683 29.9808 136.276 29.547 136.82 28.7811L140.686 23.3335L141.81 24.1313L137.953 29.5666C137.444 30.2831 136.87 30.7861 136.231 31.0756C135.598 31.3569 134.95 31.4417 134.286 31.3298C133.631 31.2238 132.999 30.9545 132.389 30.522C131.78 30.0895 131.313 29.5785 130.988 28.989C130.672 28.4053 130.542 27.7683 130.599 27.0778C130.669 26.385 130.959 25.6803 131.467 24.9639L135.325 19.5286L136.449 20.3264Z" fill="#11271F"/>
<path d="M143.234 39.8482C142.753 39.3436 142.409 38.8067 142.202 38.2373C142.008 37.6683 141.961 37.1208 142.059 36.5946C142.165 36.0614 142.423 35.5927 142.833 35.1884L143.846 36.2524C143.523 36.6302 143.359 37.0655 143.354 37.5582C143.363 38.0513 143.605 38.5465 144.078 39.0437C144.531 39.5191 145.003 39.7806 145.495 39.8282C146.001 39.8763 146.44 39.7227 146.813 39.3675C147.106 39.0889 147.267 38.7821 147.296 38.4471C147.326 38.1121 147.273 37.7787 147.139 37.4468C147.004 37.115 146.796 36.6921 146.516 36.1781C146.167 35.5482 145.912 35.017 145.751 34.5845C145.597 34.1593 145.555 33.7047 145.624 33.2206C145.707 32.737 145.986 32.2688 146.461 31.816C146.878 31.4191 147.349 31.1734 147.872 31.079C148.396 30.9846 148.927 31.0439 149.464 31.257C150.009 31.4774 150.518 31.8362 150.992 32.3335C151.674 33.0501 152.052 33.8058 152.126 34.6004C152.206 35.4024 151.978 36.1147 151.442 36.7373L150.397 35.6404C150.655 35.3253 150.764 34.928 150.726 34.4485C150.695 33.962 150.467 33.4957 150.042 33.0497C149.645 32.6329 149.212 32.3973 148.741 32.343C148.279 32.2817 147.853 32.4357 147.466 32.8048C147.188 33.0695 147.035 33.3621 147.005 33.6829C146.983 34.0109 147.032 34.3335 147.153 34.6507C147.288 34.9683 147.496 35.3912 147.776 35.9195C148.117 36.5564 148.365 37.0945 148.519 37.534C148.68 37.9665 148.722 38.4282 148.646 38.9192C148.577 39.4033 148.301 39.8751 147.818 40.3348C147.445 40.69 147 40.9256 146.483 41.0416C145.966 41.1576 145.421 41.1193 144.847 40.9267C144.273 40.7342 143.735 40.3747 143.234 39.8482Z" fill="#11271F"/>
<path d="M149.865 47.8327C149.712 47.6189 149.657 47.3852 149.7 47.1317C149.742 46.8782 149.87 46.6752 150.084 46.5227C150.298 46.3703 150.532 46.3153 150.785 46.3577C151.039 46.4002 151.242 46.5283 151.394 46.7421C151.541 46.9476 151.59 47.173 151.541 47.4184C151.499 47.6719 151.371 47.8749 151.157 48.0273C150.943 48.1798 150.71 48.2348 150.456 48.1923C150.208 48.1581 150.011 48.0382 149.865 47.8327Z" fill="#11271F"/>
<path d="M162.393 58.6791C163.361 58.3282 164.309 58.2317 165.236 58.3897C166.173 58.5443 166.996 58.9175 167.704 59.5093C168.416 60.1105 168.939 60.8716 169.273 61.7926C169.665 62.8749 169.746 63.9142 169.517 64.9105C169.287 65.9067 168.76 66.7638 167.935 67.4816L167.372 65.9293C167.871 65.4372 168.187 64.8715 168.32 64.2323C168.457 63.6027 168.395 62.927 168.134 62.2055C167.882 61.5124 167.496 60.949 166.973 60.5153C166.451 60.0816 165.834 59.8165 165.122 59.72C164.42 59.62 163.67 59.7145 162.873 60.0036C162.085 60.2892 161.448 60.697 160.964 61.2271C160.489 61.7537 160.189 62.3509 160.066 63.0185C159.943 63.6862 160.007 64.3666 160.258 65.0596C160.52 65.7812 160.9 66.3416 161.399 66.7407C161.911 67.1459 162.516 67.3778 163.214 67.4363L163.776 68.9887C162.693 68.9625 161.744 68.6405 160.929 68.0227C160.124 67.4015 159.525 66.5497 159.133 65.4674C158.799 64.5464 158.708 63.6288 158.86 62.7144C159.025 61.8061 159.413 60.9942 160.024 60.2787C160.635 59.5633 161.424 59.0301 162.393 58.6791Z" fill="#11271F"/>
<path d="M162.85 80.7481C162.726 79.7764 162.838 78.8611 163.187 78.0022C163.545 77.142 164.1 76.4248 164.852 75.8505C165.614 75.2849 166.507 74.937 167.528 74.8067C168.55 74.6764 169.496 74.7899 170.366 75.1472C171.248 75.5133 171.965 76.0682 172.518 76.8121C173.081 77.5548 173.424 78.4119 173.548 79.3836C173.674 80.3653 173.557 81.2863 173.198 82.1464C172.85 83.0053 172.299 83.7169 171.546 84.2812C170.794 84.8455 169.902 85.1934 168.87 85.325C167.838 85.4566 166.887 85.3437 166.017 84.9864C165.147 84.6291 164.43 84.0791 163.867 83.3365C163.314 82.5926 162.975 81.7298 162.85 80.7481ZM164.037 80.5967C164.13 81.3279 164.384 81.9624 164.799 82.4999C165.215 83.0475 165.759 83.4464 166.433 83.6965C167.107 83.9566 167.86 84.0336 168.692 83.9276C169.533 83.8202 170.243 83.5567 170.82 83.1369C171.409 82.7258 171.837 82.2081 172.103 81.5836C172.37 80.9592 172.456 80.2763 172.361 79.535C172.267 78.7937 172.012 78.1543 171.597 77.6167C171.183 77.0791 170.638 76.6803 169.964 76.4202C169.3 76.1688 168.548 76.0968 167.707 76.2041C166.875 76.3102 166.165 76.5687 165.576 76.9798C164.988 77.4009 164.561 77.9236 164.295 78.5481C164.029 79.1825 163.944 79.8654 164.037 80.5967Z" fill="#11271F"/>
<path d="M162.95 100.792L163.072 99.4191L171.935 94.6382L163.561 93.8966L163.683 92.5236L174.215 93.4562L174.093 94.8293L165.245 99.6116L173.604 100.352L173.482 101.725L162.95 100.792Z" fill="#11271F"/>
<path d="M170.055 116.442L168.976 116.138L169.758 113.368L160.676 110.804L161.051 109.477L170.133 112.041L170.919 109.257L171.998 109.562L170.055 116.442Z" fill="#11271F"/>
<path d="M157.149 125.771L159.202 121.649L157.478 119.843L158.127 118.541L165.822 126.638L165.113 128.061L154.021 126.785L154.669 125.483L157.149 125.771ZM158.328 125.918L163.952 126.586L160.03 122.501L158.328 125.918Z" fill="#11271F"/>
<path d="M155.088 135.094C155.895 135.735 156.474 136.492 156.825 137.365C157.184 138.243 157.297 139.14 157.165 140.053C157.026 140.975 156.651 141.819 156.042 142.586C155.326 143.487 154.483 144.101 153.514 144.427C152.545 144.754 151.539 144.754 150.496 144.427L151.523 143.135C152.203 143.301 152.85 143.274 153.465 143.053C154.073 142.84 154.616 142.433 155.093 141.832C155.552 141.255 155.829 140.63 155.925 139.958C156.02 139.286 155.923 138.621 155.632 137.964C155.349 137.314 154.876 136.725 154.212 136.197C153.556 135.676 152.875 135.347 152.17 135.212C151.472 135.084 150.807 135.142 150.173 135.387C149.54 135.632 148.994 136.043 148.536 136.62C148.058 137.22 147.78 137.838 147.702 138.472C147.625 139.121 147.744 139.757 148.06 140.383L147.033 141.675C146.487 140.738 146.264 139.761 146.364 138.744C146.471 137.733 146.882 136.776 147.599 135.875C148.208 135.108 148.942 134.55 149.801 134.2C150.661 133.865 151.555 133.77 152.485 133.915C153.414 134.06 154.282 134.453 155.088 135.094Z" fill="#11271F"/>
<path d="M142.141 156.306L141.413 155.453L143.602 153.585L137.474 146.408L138.523 145.512L144.65 152.689L146.851 150.811L147.579 151.663L142.141 156.306Z" fill="#11271F"/>
<path d="M126.219 166.126L123.577 159.99C123.206 159.127 122.722 158.577 122.125 158.34C121.518 158.106 120.839 158.151 120.088 158.474C119.346 158.794 118.856 159.252 118.619 159.849C118.372 160.45 118.434 161.182 118.805 162.045L121.447 168.18L120.181 168.725L117.545 162.604C117.198 161.797 117.066 161.045 117.151 160.349C117.24 159.662 117.505 159.064 117.946 158.555C118.377 158.051 118.936 157.651 119.623 157.355C120.309 157.06 120.988 156.927 121.661 156.956C122.324 156.989 122.935 157.21 123.496 157.617C124.051 158.038 124.502 158.652 124.849 159.459L127.485 165.58L126.219 166.126Z" fill="#11271F"/>
<path d="M106.017 161.767C106.698 161.619 107.336 161.604 107.93 161.723C108.516 161.854 109.009 162.098 109.407 162.456C109.807 162.824 110.073 163.288 110.205 163.848L108.77 164.16C108.615 163.687 108.329 163.321 107.911 163.06C107.484 162.812 106.936 162.761 106.265 162.907C105.623 163.046 105.155 163.313 104.858 163.708C104.554 164.116 104.456 164.571 104.566 165.074C104.652 165.469 104.83 165.766 105.101 165.965C105.371 166.165 105.684 166.293 106.037 166.351C106.391 166.408 106.86 166.451 107.445 166.479C108.164 166.509 108.75 166.567 109.203 166.655C109.647 166.744 110.057 166.944 110.435 167.255C110.804 167.578 111.059 168.06 111.199 168.701C111.321 169.264 111.286 169.793 111.094 170.29C110.902 170.786 110.576 171.208 110.114 171.557C109.643 171.907 109.071 172.155 108.4 172.301C107.433 172.512 106.591 172.441 105.874 172.091C105.147 171.743 104.658 171.177 104.405 170.395L105.885 170.073C106.02 170.457 106.303 170.758 106.732 170.974C107.164 171.201 107.681 171.249 108.283 171.118C108.845 170.996 109.272 170.748 109.563 170.374C109.856 170.011 109.945 169.568 109.832 169.045C109.75 168.67 109.58 168.387 109.321 168.195C109.053 168.005 108.751 167.879 108.418 167.818C108.076 167.768 107.607 167.725 107.01 167.69C106.289 167.65 105.7 167.582 105.245 167.484C104.792 167.397 104.375 167.193 103.996 166.872C103.618 166.562 103.359 166.081 103.217 165.429C103.108 164.926 103.138 164.423 103.308 163.921C103.478 163.419 103.794 162.973 104.257 162.583C104.72 162.193 105.307 161.921 106.017 161.767Z" fill="#11271F"/>
<path d="M95.7487 163.277C96.0106 163.258 96.2387 163.333 96.4332 163.501C96.6277 163.669 96.7344 163.884 96.7534 164.146C96.7724 164.408 96.6979 164.636 96.5298 164.831C96.3616 165.025 96.1466 165.132 95.8848 165.151C95.633 165.169 95.4149 165.094 95.2305 164.925C95.036 164.757 94.9293 164.542 94.9102 164.28C94.8912 164.018 94.9658 163.79 95.1339 163.595C95.292 163.402 95.4969 163.296 95.7487 163.277Z" fill="#11271F"/>
</svg>
