<svg width="75" height="75" viewBox="0 0 75 75" fill="none" xmlns="http://www.w3.org/2000/svg">
<path d="M26.55 74H48.45C66.7 74 74 66.7 74 48.45V26.55C74 8.3 66.7 1 48.45 1H26.55C8.3 1 1 8.3 1 26.55V48.45C1 66.7 8.3 74 26.55 74Z" stroke="#292D32" stroke-width="1.5" stroke-linecap="round" stroke-linejoin="round"/>
<path d="M50.275 29.2874C53.2988 29.2874 55.75 26.8362 55.75 23.8124C55.75 20.7886 53.2988 18.3374 50.275 18.3374C47.2513 18.3374 44.8 20.7886 44.8 23.8124C44.8 26.8362 47.2513 29.2874 50.275 29.2874Z" stroke="#292D32" stroke-width="2" stroke-miterlimit="10" stroke-linecap="round" stroke-linejoin="round"/>
<path d="M24.725 29.2874C27.7488 29.2874 30.2 26.8362 30.2 23.8124C30.2 20.7886 27.7488 18.3374 24.725 18.3374C21.7012 18.3374 19.25 20.7886 19.25 23.8124C19.25 26.8362 21.7012 29.2874 24.725 29.2874Z" stroke="#292D32" stroke-width="2" stroke-miterlimit="10" stroke-linecap="round" stroke-linejoin="round"/>
<path d="M24.3599 42.2451H50.64C52.465 42.2451 53.9249 43.7051 53.9249 45.5301C53.9249 54.6186 46.5885 61.9551 37.5 61.9551C28.4115 61.9551 21.075 54.6186 21.075 45.5301C21.075 43.7051 22.5349 42.2451 24.3599 42.2451Z" stroke="#292D32" stroke-width="2" stroke-miterlimit="10" stroke-linecap="round" stroke-linejoin="round"/>
</svg>
