<svg width="28" height="29" viewBox="0 0 28 29" fill="none" xmlns="http://www.w3.org/2000/svg">
<path fill-rule="evenodd" clip-rule="evenodd" d="M21.1906 0.981689H7.60878C3.87412 0.981689 0.817871 4.03658 0.817871 7.7726V21.3544C0.817871 25.0891 3.87412 28.1453 7.60878 28.1453H21.1906C24.9253 28.1453 27.9815 25.0891 27.9815 21.3544V7.7726C27.9815 4.03658 24.9253 0.981689 21.1906 0.981689ZM14.3998 20.2225C11.2739 20.2225 8.7406 17.6881 8.7406 14.5636C8.7406 11.4378 11.2739 8.90442 14.3998 8.90442C17.5243 8.90442 20.059 11.4378 20.059 14.5636C20.059 17.6881 17.5243 20.2225 14.3998 20.2225ZM20.0588 7.20669C20.0588 8.14417 20.818 8.90442 21.7565 8.90442C22.695 8.90442 23.4542 8.14417 23.4542 7.20669C23.4542 6.2692 22.695 5.50896 21.7565 5.50896C20.818 5.50896 20.0588 6.2692 20.0588 7.20669Z" fill="white"/>
</svg>
