<svg width="169" height="23" viewBox="0 0 169 23" fill="none" xmlns="http://www.w3.org/2000/svg">
<path d="M167 13.0654C167.828 13.0654 168.5 12.3939 168.5 11.5654C168.5 10.737 167.828 10.0654 167 10.0654V13.0654ZM0.93934 10.5048C0.353553 11.0906 0.353553 12.0403 0.93934 12.6261L10.4853 22.172C11.0711 22.7578 12.0208 22.7578 12.6066 22.172C13.1924 21.5862 13.1924 20.6365 12.6066 20.0507L4.12132 11.5654L12.6066 3.08015C13.1924 2.49436 13.1924 1.54461 12.6066 0.958828C12.0208 0.373041 11.0711 0.373041 10.4853 0.958828L0.93934 10.5048ZM167 10.0654H2V13.0654H167V10.0654Z" fill="#11271F"/>
</svg>
