<svg width="245" height="118" viewBox="0 0 245 118" fill="none" xmlns="http://www.w3.org/2000/svg">
<circle cx="41" cy="41" r="41" fill="#3CCD18"/>
<path d="M35.1789 68L29.1301 57.6149H25.1218V68H21.8058V42.602H30.0046C31.9237 42.602 33.5392 42.9299 34.851 43.5859C36.1871 44.2418 37.1831 45.1284 37.839 46.2459C38.4949 47.3634 38.8228 48.6387 38.8228 50.072C38.8228 51.8211 38.3127 53.3637 37.2924 54.6998C36.2964 56.0359 34.7902 56.9225 32.774 57.3598L39.1508 68H35.1789ZM25.1218 54.9548H30.0046C31.8022 54.9548 33.1505 54.5176 34.0493 53.643C34.9481 52.7442 35.3976 51.5539 35.3976 50.072C35.3976 48.5659 34.9481 47.3998 34.0493 46.5739C33.1748 45.7479 31.8265 45.3349 30.0046 45.3349H25.1218V54.9548ZM62.1948 57.2505C62.1948 57.8821 62.1583 58.5501 62.0854 59.2546H46.1252C46.2466 61.2223 46.9147 62.7649 48.1293 63.8824C49.3682 64.9756 50.8622 65.5221 52.6113 65.5221C54.0446 65.5221 55.2349 65.1942 56.1823 64.5383C57.154 63.8581 57.8342 62.9593 58.2229 61.8418H61.7939C61.2595 63.7609 60.1906 65.3278 58.5873 66.5424C56.984 67.7328 54.992 68.328 52.6113 68.328C50.7165 68.328 49.016 67.9028 47.5098 67.0526C46.028 66.2023 44.8619 64.9999 44.0117 63.4451C43.1614 61.8661 42.7363 60.0441 42.7363 57.9793C42.7363 55.9144 43.1493 54.1046 43.9753 52.5499C44.8012 50.9951 45.9551 49.8048 47.437 48.9788C48.9431 48.1286 50.6679 47.7035 52.6113 47.7035C54.5061 47.7035 56.1823 48.1164 57.6399 48.9424C59.0974 49.7683 60.2149 50.9101 60.9923 52.3677C61.7939 53.8009 62.1948 55.4285 62.1948 57.2505ZM58.7695 56.5581C58.7695 55.2949 58.4901 54.2139 57.9314 53.3151C57.3727 52.3919 56.6074 51.6996 55.6357 51.238C54.6883 50.7522 53.6316 50.5093 52.4655 50.5093C50.7894 50.5093 49.3561 51.0437 48.1657 52.1126C46.9997 53.1815 46.3316 54.6633 46.1616 56.5581H58.7695ZM65.3328 57.9793C65.3328 55.9144 65.7458 54.1167 66.5717 52.5863C67.3977 51.0316 68.5394 49.8291 69.997 48.9788C71.4788 48.1286 73.1672 47.7035 75.062 47.7035C77.5156 47.7035 79.5319 48.2986 81.1109 49.489C82.7142 50.6793 83.7709 52.3312 84.2811 54.4447H80.7101C80.37 53.23 79.7019 52.2705 78.7059 51.566C77.7342 50.8615 76.5196 50.5093 75.062 50.5093C73.1672 50.5093 71.6367 51.1652 70.4707 52.477C69.3046 53.7645 68.7216 55.5986 68.7216 57.9793C68.7216 60.3842 69.3046 62.2426 70.4707 63.5544C71.6367 64.8662 73.1672 65.5221 75.062 65.5221C76.5196 65.5221 77.7342 65.182 78.7059 64.5019C79.6776 63.8217 80.3457 62.85 80.7101 61.5867H84.2811C83.7466 63.6273 82.6778 65.2671 81.0745 66.506C79.4711 67.7206 77.467 68.328 75.062 68.328C73.1672 68.328 71.4788 67.9028 69.997 67.0526C68.5394 66.2023 67.3977 64.9999 66.5717 63.4451C65.7458 61.8904 65.3328 60.0684 65.3328 57.9793ZM106.925 57.2505C106.925 57.8821 106.889 58.5501 106.816 59.2546H90.8555C90.9769 61.2223 91.645 62.7649 92.8596 63.8824C94.0986 64.9756 95.5926 65.5221 97.3416 65.5221C98.7749 65.5221 99.9652 65.1942 100.913 64.5383C101.884 63.8581 102.565 62.9593 102.953 61.8418H106.524C105.99 63.7609 104.921 65.3278 103.318 66.5424C101.714 67.7328 99.7223 68.328 97.3416 68.328C95.4468 68.328 93.7463 67.9028 92.2402 67.0526C90.7583 66.2023 89.5923 64.9999 88.742 63.4451C87.8918 61.8661 87.4667 60.0441 87.4667 57.9793C87.4667 55.9144 87.8796 54.1046 88.7056 52.5499C89.5315 50.9951 90.6854 49.8048 92.1673 48.9788C93.6734 48.1286 95.3982 47.7035 97.3416 47.7035C99.2365 47.7035 100.913 48.1164 102.37 48.9424C103.828 49.7683 104.945 50.9101 105.723 52.3677C106.524 53.8009 106.925 55.4285 106.925 57.2505ZM103.5 56.5581C103.5 55.2949 103.22 54.2139 102.662 53.3151C102.103 52.3919 101.338 51.6996 100.366 51.238C99.4187 50.7522 98.3619 50.5093 97.1959 50.5093C95.5197 50.5093 94.0864 51.0437 92.8961 52.1126C91.73 53.1815 91.062 54.6633 90.8919 56.5581H103.5ZM121.031 47.667C123.461 47.667 125.428 48.4079 126.934 49.8898C128.441 51.3474 129.194 53.4608 129.194 56.2302V68H125.914V56.7039C125.914 54.7119 125.416 53.1936 124.42 52.149C123.424 51.0801 122.064 50.5457 120.339 50.5457C118.59 50.5457 117.193 51.0923 116.148 52.1855C115.128 53.2786 114.618 54.8698 114.618 56.959V68H111.302V48.0314H114.618V50.8737C115.274 49.8534 116.161 49.0639 117.278 48.5051C118.42 47.9464 119.671 47.667 121.031 47.667ZM138.655 50.7643V62.5341C138.655 63.5059 138.861 64.1982 139.274 64.6112C139.687 64.9999 140.404 65.1942 141.424 65.1942H143.866V68H140.878C139.031 68 137.647 67.5749 136.724 66.7246C135.801 65.8744 135.339 64.4776 135.339 62.5341V50.7643H132.752V48.0314H135.339V43.0028H138.655V48.0314H143.866V50.7643H138.655ZM53.7264 84.602L46.3657 110H42.6489L36.7458 89.5577L30.624 110L26.9437 110.036L19.8381 84.602H23.3727L28.9114 106.137L35.0332 84.602H38.75L44.5802 106.065L50.1554 84.602H53.7264ZM66.0641 110.328C64.1936 110.328 62.4931 109.903 60.9627 109.053C59.4565 108.202 58.2662 107 57.3916 105.445C56.5414 103.866 56.1163 102.044 56.1163 99.9793C56.1163 97.9387 56.5535 96.141 57.4281 94.5863C58.3269 93.0073 59.5415 91.8048 61.072 90.9788C62.6024 90.1286 64.3151 89.7035 66.2099 89.7035C68.1047 89.7035 69.8174 90.1286 71.3478 90.9788C72.8782 91.8048 74.0807 92.9951 74.9553 94.5499C75.8541 96.1046 76.3035 97.9144 76.3035 99.9793C76.3035 102.044 75.8419 103.866 74.9188 105.445C74.02 107 72.7932 108.202 71.2385 109.053C69.6837 109.903 67.959 110.328 66.0641 110.328ZM66.0641 107.413C67.2545 107.413 68.3719 107.133 69.4165 106.575C70.4611 106.016 71.2992 105.178 71.9308 104.06C72.5867 102.943 72.9147 101.583 72.9147 99.9793C72.9147 98.376 72.5989 97.0156 71.9673 95.8981C71.3356 94.7806 70.5097 93.9547 69.4894 93.4202C68.4691 92.8615 67.3638 92.5821 66.1734 92.5821C64.9588 92.5821 63.8414 92.8615 62.8211 93.4202C61.8251 93.9547 61.0234 94.7806 60.4161 95.8981C59.8088 97.0156 59.5051 98.376 59.5051 99.9793C59.5051 101.607 59.7966 102.979 60.3796 104.097C60.987 105.214 61.7886 106.052 62.7846 106.611C63.7806 107.146 64.8738 107.413 66.0641 107.413ZM83.9793 93.2745C84.5623 92.1327 85.3883 91.246 86.4572 90.6144C87.5503 89.9828 88.8743 89.667 90.429 89.667V93.0923H89.5545C85.8377 93.0923 83.9793 95.1086 83.9793 99.1412V110H80.6634V90.0314H83.9793V93.2745ZM105.407 110L97.5728 101.182V110H94.2568V83.0351H97.5728V98.8861L105.261 90.0314H109.889L100.488 99.9793L109.926 110H105.407ZM120.079 110.328C118.549 110.328 117.176 110.073 115.962 109.563C114.747 109.028 113.787 108.3 113.083 107.376C112.379 106.429 111.99 105.348 111.917 104.133H115.342C115.439 105.129 115.901 105.943 116.727 106.575C117.577 107.206 118.682 107.522 120.043 107.522C121.306 107.522 122.302 107.243 123.031 106.684C123.76 106.125 124.124 105.421 124.124 104.571C124.124 103.696 123.735 103.052 122.958 102.639C122.181 102.202 120.978 101.777 119.351 101.364C117.869 100.975 116.654 100.587 115.707 100.198C114.783 99.7849 113.982 99.1898 113.302 98.4124C112.646 97.6107 112.318 96.5661 112.318 95.2786C112.318 94.2583 112.621 93.3231 113.229 92.4728C113.836 91.6226 114.698 90.9545 115.816 90.4687C116.933 89.9585 118.209 89.7035 119.642 89.7035C121.853 89.7035 123.638 90.2622 124.999 91.3797C126.359 92.4971 127.088 94.0276 127.185 95.971H123.869C123.796 94.9264 123.371 94.0883 122.594 93.4567C121.841 92.8251 120.82 92.5093 119.533 92.5093C118.342 92.5093 117.395 92.7643 116.69 93.2745C115.986 93.7846 115.634 94.4527 115.634 95.2786C115.634 95.9345 115.84 96.4811 116.253 96.9184C116.69 97.3314 117.225 97.6715 117.857 97.9387C118.512 98.1816 119.411 98.461 120.553 98.7768C121.986 99.1655 123.152 99.5541 124.051 99.9428C124.95 100.307 125.715 100.866 126.347 101.619C127.003 102.372 127.343 103.356 127.367 104.571C127.367 105.664 127.063 106.648 126.456 107.522C125.849 108.397 124.986 109.089 123.869 109.599C122.776 110.085 121.513 110.328 120.079 110.328Z" fill="#11271F"/>
<path d="M170 81.5611C168.882 81.5611 167.976 82.4674 167.976 83.5854C167.976 84.7035 168.882 85.6098 170 85.6098V81.5611ZM244.31 85.0169C245.1 84.2263 245.1 82.9446 244.31 82.154L231.426 69.2708C230.636 68.4803 229.354 68.4803 228.563 69.2708C227.773 70.0614 227.773 71.3432 228.563 72.1338L240.015 83.5854L228.563 95.0371C227.773 95.8277 227.773 97.1095 228.563 97.9001C229.354 98.6906 230.636 98.6906 231.426 97.9001L244.31 85.0169ZM170 85.6098H242.878V81.5611H170V85.6098Z" fill="#11271F"/>
</svg>
