<svg width="247" height="103" viewBox="0 0 247 103" fill="none" xmlns="http://www.w3.org/2000/svg">
<path d="M75.4655 61.7459H67.0943L65.5523 66.0142H62.9087L69.848 46.9311H72.7394L79.6511 66.0142H77.0076L75.4655 61.7459ZM74.7496 59.7082L71.2799 50.0152L67.8103 59.7082H74.7496ZM85.1813 53.7327C85.6953 52.8332 86.448 52.0989 87.4393 51.5298C88.4307 50.9607 89.5597 50.6761 90.8264 50.6761C92.1849 50.6761 93.4057 50.9974 94.4888 51.6399C95.5719 52.2824 96.4255 53.1912 97.0497 54.3661C97.6739 55.5226 97.986 56.8719 97.986 58.414C97.986 59.9377 97.6739 61.2962 97.0497 62.4894C96.4255 63.6827 95.5627 64.6098 94.4612 65.2707C93.3781 65.9315 92.1665 66.262 90.8264 66.262C89.523 66.262 88.3756 65.9774 87.3843 65.4083C86.4113 64.8393 85.677 64.1141 85.1813 63.2329V66.0142H82.6755V45.6369H85.1813V53.7327ZM95.425 58.414C95.425 57.2758 95.1955 56.2845 94.7366 55.44C94.2777 54.5955 93.6535 53.953 92.8641 53.5124C92.0931 53.0718 91.2394 52.8515 90.3032 52.8515C89.3853 52.8515 88.5316 53.081 87.7422 53.54C86.9712 53.9805 86.347 54.6323 85.8697 55.4951C85.4108 56.3395 85.1813 57.3217 85.1813 58.4415C85.1813 59.5797 85.4108 60.5802 85.8697 61.443C86.347 62.2875 86.9712 62.9392 87.7422 63.3982C88.5316 63.8387 89.3853 64.059 90.3032 64.059C91.2394 64.059 92.0931 63.8387 92.8641 63.3982C93.6535 62.9392 94.2777 62.2875 94.7366 61.443C95.1955 60.5802 95.425 59.5705 95.425 58.414ZM107.866 66.262C106.452 66.262 105.167 65.9407 104.011 65.2982C102.872 64.6557 101.973 63.747 101.312 62.5721C100.669 61.3788 100.348 60.0019 100.348 58.4415C100.348 56.8995 100.679 55.541 101.339 54.3661C102.019 53.1728 102.937 52.2641 104.093 51.6399C105.25 50.9974 106.544 50.6761 107.976 50.6761C109.408 50.6761 110.702 50.9974 111.859 51.6399C113.015 52.2641 113.924 53.1636 114.585 54.3385C115.264 55.5134 115.604 56.8811 115.604 58.4415C115.604 60.0019 115.255 61.3788 114.557 62.5721C113.878 63.747 112.951 64.6557 111.776 65.2982C110.601 65.9407 109.298 66.262 107.866 66.262ZM107.866 64.059C108.765 64.059 109.61 63.8479 110.399 63.4257C111.188 63.0035 111.822 62.3701 112.299 61.5257C112.795 60.6812 113.043 59.6531 113.043 58.4415C113.043 57.2299 112.804 56.2019 112.327 55.3574C111.849 54.5129 111.225 53.8888 110.454 53.4849C109.683 53.0627 108.848 52.8515 107.948 52.8515C107.03 52.8515 106.186 53.0627 105.415 53.4849C104.662 53.8888 104.056 54.5129 103.597 55.3574C103.139 56.2019 102.909 57.2299 102.909 58.4415C102.909 59.6715 103.129 60.7087 103.57 61.5532C104.029 62.3977 104.635 63.031 105.387 63.4532C106.14 63.8571 106.966 64.059 107.866 64.059ZM132.281 50.924V66.0142H129.775V63.7837C129.298 64.5547 128.628 65.1605 127.765 65.6011C126.921 66.0233 125.984 66.2345 124.956 66.2345C123.781 66.2345 122.726 65.9958 121.79 65.5185C120.853 65.0228 120.11 64.2885 119.559 63.3155C119.027 62.3426 118.761 61.1585 118.761 59.7633V50.924H121.239V59.4328C121.239 60.9198 121.615 62.0672 122.368 62.875C123.121 63.6643 124.149 64.059 125.452 64.059C126.792 64.059 127.848 63.646 128.619 62.8199C129.39 61.9938 129.775 60.7913 129.775 59.2126V50.924H132.281ZM139.569 52.9892V61.8836C139.569 62.6179 139.725 63.1411 140.037 63.4532C140.349 63.747 140.891 63.8938 141.662 63.8938H143.507V66.0142H141.249C139.853 66.0142 138.807 65.6929 138.109 65.0504C137.412 64.4078 137.063 63.3523 137.063 61.8836V52.9892H135.108V50.924H137.063V47.1239H139.569V50.924H143.507V52.9892H139.569ZM156.335 46.821V58.9647C156.335 60.672 156.748 61.9387 157.574 62.7648C158.418 63.5909 159.584 64.004 161.071 64.004C162.54 64.004 163.687 63.5909 164.513 62.7648C165.358 61.9387 165.78 60.672 165.78 58.9647V46.821H168.286V58.9372C168.286 60.5343 167.965 61.8836 167.322 62.9851C166.68 64.0682 165.808 64.876 164.706 65.4083C163.623 65.9407 162.402 66.2069 161.044 66.2069C159.685 66.2069 158.455 65.9407 157.354 65.4083C156.271 64.876 155.408 64.0682 154.765 62.9851C154.141 61.8836 153.829 60.5343 153.829 58.9372V46.821H156.335ZM177.808 66.262C176.652 66.262 175.614 66.0692 174.697 65.6837C173.779 65.2798 173.054 64.7291 172.521 64.0315C171.989 63.3155 171.695 62.4986 171.64 61.5807H174.228C174.302 62.3334 174.651 62.9484 175.275 63.4257C175.917 63.903 176.753 64.1417 177.781 64.1417C178.735 64.1417 179.488 63.9305 180.039 63.5083C180.589 63.0861 180.865 62.5537 180.865 61.9112C180.865 61.2503 180.571 60.7638 179.984 60.4517C179.396 60.1213 178.487 59.8 177.257 59.4879C176.138 59.1942 175.22 58.9005 174.504 58.6067C173.806 58.2947 173.2 57.8449 172.686 57.2574C172.191 56.6516 171.943 55.8622 171.943 54.8893C171.943 54.1182 172.172 53.4115 172.631 52.7689C173.09 52.1264 173.742 51.6216 174.586 51.2544C175.431 50.8689 176.395 50.6761 177.478 50.6761C179.148 50.6761 180.498 51.0984 181.526 51.9428C182.554 52.7873 183.104 53.9438 183.178 55.4125H180.672C180.617 54.6231 180.296 53.9897 179.708 53.5124C179.139 53.0351 178.368 52.7965 177.395 52.7965C176.496 52.7965 175.78 52.9892 175.247 53.3747C174.715 53.7603 174.449 54.2651 174.449 54.8893C174.449 55.3849 174.605 55.798 174.917 56.1284C175.247 56.4405 175.651 56.6975 176.128 56.8995C176.624 57.083 177.303 57.2942 178.166 57.5328C179.249 57.8265 180.131 58.1203 180.81 58.414C181.489 58.6894 182.067 59.1116 182.545 59.6807C183.04 60.2498 183.297 60.9933 183.316 61.9112C183.316 62.7373 183.086 63.4808 182.627 64.1417C182.168 64.8025 181.517 65.3257 180.672 65.7113C179.846 66.0784 178.891 66.262 177.808 66.262Z" fill="black"/>
<path d="M1.437 70.5541C1.66648 71.2493 2.41603 71.6268 3.11117 71.3973C3.80631 71.1678 4.18379 70.4183 3.95431 69.7231L1.437 70.5541ZM134.801 2.09746L134.765 3.42245L134.801 2.09746ZM226.7 93.1133L227.284 94.3033L226.7 93.1133ZM91.1631 80.3442C90.4554 80.5314 90.0334 81.2569 90.2206 81.9646L93.2712 93.4972C93.4584 94.2049 94.1839 94.6268 94.8915 94.4396C95.5992 94.2524 96.0212 93.527 95.834 92.8193L93.1224 82.5681L103.374 79.8565C104.081 79.6693 104.503 78.9438 104.316 78.2361C104.129 77.5284 103.403 77.1065 102.696 77.2937L91.1631 80.3442ZM3.95431 69.7231C2.43518 65.1214 3.62105 58.562 8.07219 51.1714C12.497 43.8246 20.0439 35.8491 30.8356 28.5483C52.4063 13.9553 86.8432 2.12849 134.765 3.42245L134.837 0.772474C86.4492 -0.534057 51.4477 11.4032 29.3502 26.3527C18.3077 33.8231 10.4631 42.0634 5.80131 49.8038C1.16589 57.5003 -0.429786 64.8994 1.437 70.5541L3.95431 69.7231ZM134.765 3.42245C182.072 4.69982 216.359 21.6141 232.989 40.8208C241.307 50.4278 245.12 60.4937 244.16 69.419C243.206 78.2806 237.51 86.3337 226.116 91.9233L227.284 94.3033C239.306 88.4055 245.724 79.6591 246.795 69.7027C247.86 59.8102 243.611 49.0397 234.993 39.0856C217.75 19.1704 182.67 2.06406 134.837 0.772474L134.765 3.42245ZM226.116 91.9233C214.907 97.4218 192.199 100.854 166.767 99.7228C141.377 98.5931 113.566 92.9253 92.1684 80.4799L90.8356 82.7714C112.737 95.5099 141.018 101.231 166.649 102.371C192.237 103.51 215.479 100.094 227.284 94.3033L226.116 91.9233Z" fill="black"/>
</svg>
