<svg width="85" height="36" viewBox="0 0 85 36" fill="none" xmlns="http://www.w3.org/2000/svg">
<path d="M3 15.6734C1.71506 15.6734 0.673411 16.7151 0.67341 18C0.67341 19.2849 1.71506 20.3266 3 20.3266L3 15.6734ZM83.6451 19.6452C84.5537 18.7366 84.5537 17.2634 83.6451 16.3549L68.8388 1.54853C67.9302 0.639944 66.4571 0.639944 65.5485 1.54853C64.6399 2.45712 64.6399 3.93024 65.5485 4.83883L78.7097 18L65.5485 31.1612C64.6399 32.0698 64.6399 33.5429 65.5485 34.4515C66.4571 35.3601 67.9302 35.3601 68.8388 34.4515L83.6451 19.6452ZM3 20.3266L82 20.3266L82 15.6734L3 15.6734L3 20.3266Z" fill="black"/>
</svg>
