<svg width="53" height="71" viewBox="0 0 53 71" fill="none" xmlns="http://www.w3.org/2000/svg">
<path d="M49.645 41.2463L26.3225 64.5688L26.3225 17.9238L49.645 41.2463ZM49.645 41.2463L3.00002 41.2463" stroke="white" stroke-width="4.61701" stroke-linecap="round"/>
<path d="M34.0058 0L35.1948 3.01479L38.2096 4.20381L35.1948 5.39282L34.0058 8.40762L32.8168 5.39282L29.802 4.20381L32.8168 3.01479L34.0058 0Z" fill="#52BF4F"/>
<path d="M44.9516 14.9829L46.4348 18.7437L50.1956 20.2269L46.4348 21.7101L44.9516 25.4709L43.4684 21.7101L39.7076 20.2269L43.4684 18.7437L44.9516 14.9829Z" fill="#52BF4F"/>
<path d="M11.4777 6.25208L12.3923 8.57115L14.7114 9.48577L12.3923 10.4004L11.4777 12.7195L10.5631 10.4004L8.24402 9.48577L10.5631 8.57115L11.4777 6.25208Z" fill="#52BF4F"/>
</svg>
