<svg width="40" height="53" viewBox="0 0 40 53" fill="none" xmlns="http://www.w3.org/2000/svg">
<path d="M36.715 31.1432L19.3491 48.5091L19.3491 13.7773L36.715 31.1432ZM36.715 31.1432L1.98326 31.1432" stroke="#11271F" stroke-width="3.43781" stroke-linecap="round"/>
<path d="M25.0701 0.431641L25.9554 2.67645L28.2002 3.56178L25.9554 4.44712L25.0701 6.69193L24.1847 4.44712L21.9399 3.56178L24.1847 2.67645L25.0701 0.431641Z" fill="#11271F"/>
<path d="M33.2206 11.5879L34.325 14.3881L37.1252 15.4925L34.325 16.5969L33.2206 19.3972L32.1162 16.5969L29.3159 15.4925L32.1162 14.3881L33.2206 11.5879Z" fill="#11271F"/>
<path d="M8.29599 5.08691L8.97702 6.81369L10.7038 7.49472L8.97702 8.17575L8.29599 9.90252L7.61496 8.17575L5.88818 7.49472L7.61496 6.81369L8.29599 5.08691Z" fill="#11271F"/>
</svg>
