<svg width="30" height="25" viewBox="0 0 30 25" fill="none" xmlns="http://www.w3.org/2000/svg">
<path d="M26.8276 6.52269C26.8472 6.78679 26.8472 7.04937 26.8472 7.31195C26.8472 15.3479 20.7308 24.6076 9.55301 24.6076C6.10926 24.6076 2.90999 23.6101 0.217773 21.8777C0.706719 21.9335 1.17756 21.9531 1.68612 21.9531C4.52774 21.9531 7.14299 20.9934 9.23308 19.356C6.56048 19.3002 4.32099 17.5496 3.54834 15.1411C3.9241 15.1969 4.30137 15.2347 4.69675 15.2347C5.24154 15.2347 5.78934 15.1592 6.2979 15.0279C3.51061 14.4635 1.42354 12.0173 1.42354 9.06249V8.98704C2.23392 9.43826 3.17408 9.72046 4.17008 9.75819C2.53272 8.66862 1.45976 6.80489 1.45976 4.69669C1.45976 3.56789 1.76006 2.53266 2.28674 1.63022C5.27926 5.31693 9.77786 7.72695 14.8212 7.99104C14.7277 7.53831 14.6703 7.06899 14.6703 6.59815C14.6703 3.24797 17.3807 0.519531 20.749 0.519531C22.4995 0.519531 24.0795 1.25295 25.1902 2.43909C26.5635 2.175 27.8794 1.66644 29.0474 0.970749C28.5962 2.38175 27.6349 3.56789 26.3748 4.32093C27.5987 4.18813 28.7849 3.85009 29.8744 3.37926C29.0474 4.58351 28.0137 5.65648 26.8276 6.52269Z" fill="white"/>
</svg>
