<svg width="62" height="320" viewBox="0 0 62 320" fill="none" xmlns="http://www.w3.org/2000/svg">
<path d="M57.6534 320H55.2414C42.9905 298.071 31.8072 275.508 21.4895 252.658C17.5251 243.87 13.7627 235.002 9.97721 226.133C9.69445 225.477 9.83298 224.411 10.7332 224.273C26.2386 221.918 41.8191 219.931 57.2899 217.363C53.3371 211.259 49.742 204.872 45.9681 198.67C41.7902 191.794 37.6297 184.912 33.4634 178.031C25.1307 164.268 16.8038 150.504 8.4711 136.741C4.36825 129.957 -0.415539 122.776 0.0287931 114.501C0.0922691 113.332 1.22329 112.209 2.4755 112.641C18.5984 118.256 35.333 122.488 52.258 124.901C41.294 92.399 28.668 60.5303 13.8897 29.5543C9.63676 20.6398 5.21652 11.8002 0.646246 3.04123C-0.548257 0.749268 2.93136 -1.28934 4.12587 1.00839C20.468 32.4048 34.8079 64.8378 46.9779 98.0713C50.446 107.544 53.7757 117.081 56.8456 126.686C57.3303 128.201 55.8415 129.197 54.5201 129.007C37.3181 126.537 20.4335 122.672 3.95279 117.184C4.56447 123.289 8.14217 128.731 11.2698 133.913C15.3669 140.703 19.464 147.492 23.5611 154.282C31.6976 167.763 39.8571 181.233 47.9647 194.737C52.5581 202.384 57.5265 209.922 61.7621 217.766C62.4488 219.039 61.5602 220.288 60.2329 220.432C44.4043 222.137 28.6334 224.498 12.8394 226.513C25.2288 257.558 40.0072 287.797 56.032 317.115C56.5571 318.077 57.1053 319.021 57.6304 319.983L57.6534 320Z" fill="#292D32"/>
</svg>
